<svg xmlns="http://www.w3.org/2000/svg" viewBox="0 0 222 96"><g id="Capa_2" data-name="Capa 2"><g id="Capa_1-2" data-name="Capa 1"><path d="M24.54,6.33l.38.11h.3c.52,0,1.24-1.16,1.5-1.57a8.69,8.69,0,0,1,.75-1.05c.26-.34.26-.38,1.16-1.72-.08-1.16-2-2.1-3-2.1h-.41c-.49,0-1,.94-1.24,1.31s-.45.75-.63,1.09a4.19,4.19,0,0,0-.64,2.09C22.71,5.17,24,6.18,24.54,6.33Z"/><path d="M70.69,13.63a1.93,1.93,0,0,0-.22.18c0,.79-1.76,3.45-2.25,4.12-.9,1.54-3.71,5.92-4.72,6.7a1.71,1.71,0,0,1,0-.45c0-.07,0-.18,0-.26s0-.22.07-.3c0-.26.11-.52.15-.79a13.34,13.34,0,0,0,.45-1.75s0,0,.07-.08a22.92,22.92,0,0,1,1.28-3.29,9.09,9.09,0,0,0,.41-.83,2.71,2.71,0,0,1,.22-.52l1-1.72a9.84,9.84,0,0,0,.52-.86c.23-.34.42-.68.64-1,1-1.45,1-1.57,1-1.83a3.08,3.08,0,0,0-.33-.37,1.13,1.13,0,0,1-.19-.19c-.3-.26-.6-.45-.9-.67a3.76,3.76,0,0,0-.41-.23,3,3,0,0,0-1-.3h-.07c-.15.15-.26.23-.6.6,0,.08-.11.15-.15.22-.41.53-.07.12-.52.72,0-1.39-.75-3-2.36-3.07,0,0-.08-.08-.12-.08s-.11,0-.15,0a.3.3,0,0,0-.18,0H61.7c-3,0-5.58,3.22-6.93,5.62a11.89,11.89,0,0,0-1.27,2.58,5.34,5.34,0,0,1-.23.53,21.21,21.21,0,0,0-.76,2.18c-.59.89-1.22,1.8-1.78,2.53A10.69,10.69,0,0,1,50,22a12.2,12.2,0,0,1-2.29,2.89,49.65,49.65,0,0,1,2.55-8.76c.41-.83,4.12-10,4.23-10.56.08,0,0-.19.15-.22s.11.07.19.07.11,0,.15,0a11.61,11.61,0,0,1,2.92,1.05h.22a1.21,1.21,0,0,0,.3-.34A3.05,3.05,0,0,0,58.82,5c.07-.23-.08-.3,0-.53a2.66,2.66,0,0,0-.52-1.53,1.93,1.93,0,0,0-1.13-.56.3.3,0,0,0-.18,0H56.8s-.08,0-.08,0a2.24,2.24,0,0,0-.52,0h-.45c0-1-2.4-2-3.37-2.18-.12,0-.19,0-.3,0a13.85,13.85,0,0,0-1.2,2.55c-.55.12-1.27.27-2,.4.14-.22.34-.52.64-1-.08-1.16-2-2.1-3-2.1h-.41c-.49,0-1,.94-1.24,1.31s-.45.75-.63,1.09-.29.58-.4.85A8.44,8.44,0,0,0,42.64,3a.29.29,0,0,0-.15,0h-.27a.45.45,0,0,0-.15.11,2.61,2.61,0,0,0,2.25,3.22h.08s.07,0,.07,0a.21.21,0,0,0,.15,0h.15a6.45,6.45,0,0,0,.83.07h.09l.13,0h.3a.69.69,0,0,0,.42-.19A8.3,8.3,0,0,1,47.88,6c.22-.08.45-.08.67-.15.72-.15.87-.27,1-.27a.14.14,0,0,1,.11,0,1.88,1.88,0,0,0-.19.41c-.19.64-1.61,4.11-3,7.61h-.07a.47.47,0,0,0-.26.08,1.14,1.14,0,0,0-.19.56,4,4,0,0,1-.68,1.27c-.33.49-.63,1-.93,1.5s-.86,1.42-1.09,1.8c-.11.15-.19.33-.3.48s-.41.75-1.27,1.88c-.12.18-.23.37-.38.56s-1.2,1.64-1.38,1.94a6.51,6.51,0,0,1-.9,1.09,1,1,0,0,1,0-.34,1.79,1.79,0,0,0,.07-.48c0-.12,0-.27.08-.42s0-.18.07-.3,0-.22.08-.33a39.55,39.55,0,0,1,4.31-10.11,18.9,18.9,0,0,0,1.31-3C45,8.83,43.16,8,42.41,7.71a1.79,1.79,0,0,0-.86-.19c-.3,0-.3.19-.41.34a22.74,22.74,0,0,0-1.88,3.56c-.32.7-.67,1.42-1,2.13H38c-.3.08-.37.3-.41.67a2.77,2.77,0,0,1-.82,1.54A19.73,19.73,0,0,1,34.85,18a4.47,4.47,0,0,0-1.76-1.72.64.64,0,0,1-.38-.15,6,6,0,0,0-1.2-.41,5.35,5.35,0,0,0-1.61-.34,2,2,0,0,0-.64-.07,2.34,2.34,0,0,0-.26-.19c0-.19,0-.3,0-.45a3.41,3.41,0,0,1,.3-.67c1.35-1.8,3.56-3.93,5.84-4.23h.23a.71.71,0,0,0,.3,0c.22.08.6,0,.86.15A1.25,1.25,0,0,0,37,10c.45-1-.41-2.47-1.91-2.77a9.37,9.37,0,0,0-1,0c-.45,0-.9,0-1.24,0,0,0-.07.08-.11.08s0,0-.07,0a.14.14,0,0,0-.08,0c-.07.07-.22,0-.3.07-4,1-6.84,4.4-7,6.42a1.24,1.24,0,0,0-.15.51,4.26,4.26,0,0,1-.68,1.27c-.33.49-.63,1-.93,1.5s-.87,1.42-1.09,1.8c-.11.15-.19.33-.3.48s-.41.75-1.27,1.88c-.12.18-.23.37-.38.56s-1.2,1.64-1.38,1.94a6.51,6.51,0,0,1-.9,1.09,1,1,0,0,1,0-.34,2.31,2.31,0,0,0,.07-.48c0-.12,0-.27.08-.42s0-.18.07-.3,0-.22.08-.33a39.88,39.88,0,0,1,4.3-10.11,18.09,18.09,0,0,0,1.32-3c0-1.05-1.84-1.87-2.59-2.17a1.79,1.79,0,0,0-.86-.19c-.3,0-.3.19-.41.34a22.74,22.74,0,0,0-1.88,3.56c-.52,1.12-1.08,2.28-1.64,3.4a3.53,3.53,0,0,0-.17.33A4.07,4.07,0,0,1,14,16.85a.61.61,0,0,1-.34-.12v-.07a17.1,17.1,0,0,0,2.48-5.21c.15-.52.41-1,.56-1.6a5.35,5.35,0,0,0,.11-.68c0-.11,0-.3,0-.41a1.37,1.37,0,0,0,.07-.34c0-.18.08-.33,0-.52a7.32,7.32,0,0,0,.15-.79,3,3,0,0,0,0-.6c0-.11-.11-.22,0-.33-.45-1.54-1.31-2.59-3-2.59a1.36,1.36,0,0,0-.52.27c-1.31.82-2.1,2.92-2.47,4.3a15.88,15.88,0,0,0-.53,1.76,1.46,1.46,0,0,0-.11.6c-.11.07,0,.22-.11.34s0,.22,0,.33,0,.3-.08.41,0,.27-.07.42,0,.33-.08.52,0,.11,0,.19a.54.54,0,0,1,0,.22,2.44,2.44,0,0,0-.08.56c0,.12,0,.27-.07.38s0,.3,0,.45,0,.6,0,.67A5.22,5.22,0,0,0,10,16.36a.17.17,0,0,1,0,.19A20.05,20.05,0,0,1,6.9,20.78c-.18.22-.37.41-.56.63-.71.68-1.57,1.72-1.87,1.69s-.34-1.91-.3-2.62a1.69,1.69,0,0,1,0-.45c.07-.15,0-.34.07-.49a4.39,4.39,0,0,1,.12-.71,1.76,1.76,0,0,1,.07-.45c0-.11,0-.22,0-.34s.07-.37.15-.52a.68.68,0,0,1,0-.3c.07-.08,0-.19.07-.26a17.24,17.24,0,0,0,.52-1.69A20.48,20.48,0,0,1,6,13.18a14.92,14.92,0,0,1,1-2.25A10.32,10.32,0,0,1,8.93,8.09C9,8,9.15,8,9.23,7.82a2.33,2.33,0,0,0,.07-.75.78.78,0,0,1-.15-.22,5.08,5.08,0,0,1-.67-.07,5.09,5.09,0,0,0-1.35-.23H6.19a4.59,4.59,0,0,0-1.68.23A4.11,4.11,0,0,0,2.56,8.61c-.45,1.31-.86,2.58-1.24,3.89a2.55,2.55,0,0,0-.15.53,11.42,11.42,0,0,0-.34,1.49,2.11,2.11,0,0,1-.15.53c0,.22-.07.45-.11.67a5.76,5.76,0,0,0,0,.68c-.07,0-.11.37-.11.45a.43.43,0,0,1,0,.22,2.92,2.92,0,0,0-.11.56,2.7,2.7,0,0,0,0,.49,7.87,7.87,0,0,0-.14,1.65c0,.22-.12.14-.08,1.42.08,2.36,1.2,4.6,3.78,4.94a.11.11,0,0,0,.12.07.54.54,0,0,1,.22,0c.15,0,.26,0,.41,0,1.13,0,3.41-2.13,4.09-3a7.6,7.6,0,0,1,1.31-1.46c.48-.42.71-1,1.57-2,0,0-.07.11.37-.48A2.74,2.74,0,0,0,13,19.5a3.12,3.12,0,0,0,1.42-.22,1.57,1.57,0,0,0,.45-.12,13.81,13.81,0,0,0-.52,1.95s0,.12,0,.15v.19a8.6,8.6,0,0,0-.15.86,4.17,4.17,0,0,1,0,.71c0,.08,0,.11,0,.19a4.15,4.15,0,0,0,.11,1.16c.34,1.5,1.09,2.84,2.85,2.84l.49,0A.92.92,0,0,0,18,27a7.14,7.14,0,0,0,2.54-2.17,10.27,10.27,0,0,0,.83-1c.07-.15.22-.19.26-.34l0,0a2.85,2.85,0,0,0,.83,1.75c.15.27.41.41.6.64a5.74,5.74,0,0,0,1.2.56c1.46.34,1.12.19,1.27.26a4.58,4.58,0,0,0,.71.12,3.42,3.42,0,0,0,.9-.12,3.13,3.13,0,0,0,.57-.07c.07,0,.15,0,.18,0a7,7,0,0,0,.83-.15c1.2-.37,3.71-1.83,4.31-3,.14-.26.37-.49.52-.75,1.09-1.57.79-1.91,1.16-2.1a4.84,4.84,0,0,0,.67-.38c-.11.43-.2.84-.22,1s0,.12,0,.15v.19a8.6,8.6,0,0,0-.15.86A4.17,4.17,0,0,1,35,23c0,.08,0,.11,0,.19a4.15,4.15,0,0,0,.11,1.16c.34,1.5,1.09,2.84,2.85,2.84l.49,0a.85.85,0,0,0,.45-.19,7.26,7.26,0,0,0,2.55-2.17,11.74,11.74,0,0,0,.82-1c.07-.15.22-.19.26-.34s.3-.41.49-.64.56-.74.86-1.16c-.08.39-.16,1-.19,1.09a2,2,0,0,0,0,.49,11.54,11.54,0,0,0,.08,1.68,2.68,2.68,0,0,0,2.77,2.28c1.94,0,3.92-2.36,5.28-4.3a1.13,1.13,0,0,0,0,.15c0,1.5.33,3,2.21,3,1.27,0,3.37-1.8,4.19-2.77.15-.22.94-1,1.05-1.16s.41-.49.6-.75a1.3,1.3,0,0,1,0,.41,5.52,5.52,0,0,0-.15.68,6.26,6.26,0,0,0,0,.75,2.64,2.64,0,0,0,0,.75c0,.11,0,.26,0,.37A2.76,2.76,0,0,0,62.08,27s.07,0,.11,0a.31.31,0,0,0,.19,0c1.38,0,2.73-1.39,3.56-2.44.15-.18.29-.37.48-.56a10,10,0,0,0,1.35-1.83c1-1.42,2-2.88,2.89-4.42.11-.19,1.38-2.32,1.53-2.66a.87.87,0,0,0,0-.67C72.12,13.81,71.22,13.63,70.69,13.63ZM25.56,24.41c-.08,0-.15.07-.23,0a.69.69,0,0,1-.71-.56,1,1,0,0,1,.11-.86A3.37,3.37,0,0,1,27,21.6c.22,0,.41-.08.64-.08.41,0,.82.08,1.23.08C28.22,22.54,26.83,24.41,25.56,24.41Zm4.38-5.13c-.11,0,0,.15-.08.22s-1,0-1.87,0a9.5,9.5,0,0,0-2,.11c-.11,0-.23,0-.34.07a.88.88,0,0,0-.3,0,.59.59,0,0,1-.26,0,3.26,3.26,0,0,0-.95.3c.64-1,1.25-2,1.7-2.85l.2-.35.17.13a5.8,5.8,0,0,0,2.74.78c.15,0,.3.08.45,0,.33.23.48.08.63.94C30.05,18.9,29.94,19.09,29.94,19.28Zm32.89-4.91c-2.44,4.65-1.46,3.52-2.25,4.42l-.45.45a15.14,15.14,0,0,0-1.24,1.39,1.23,1.23,0,0,1-.41.37,1.22,1.22,0,0,0-.22.23,18.12,18.12,0,0,1-1.69,1.45A.9.9,0,0,1,56,23c-.41-.34.19-2,.37-2.51a4.44,4.44,0,0,0,.27-.75,34.31,34.31,0,0,1,3.7-7,7.84,7.84,0,0,0,.75-1,3.45,3.45,0,0,1,2-1.42c.07,0,.19,0,.3,0a.74.74,0,0,1,.26.38.13.13,0,0,1,0,.11c0,.11,0,.23.15.3v.11s0,0,0,0a4,4,0,0,1-.48,2.25Z"/><polygon points="18.04 30.97 0 30.97 0 96 49.55 96 49.55 80.21 18.04 80.21 18.04 30.97"/><rect x="52.99" y="30.97" width="18.13" height="65.03"/><polygon points="112.95 56.15 97.43 30.97 78.37 30.97 78.37 96 96.03 96 96.03 58.84 112.58 84.11 112.95 84.11 129.59 58.65 129.59 96 147.53 96 147.53 30.97 128.48 30.97 112.95 56.15"/><path d="M194.3,30.5H176.91L149.21,96h19l4.65-11.61h25.1L202.66,96H222ZM178.12,70.36l7.34-18.49,7.26,18.49Z"/></g></g></svg>